<?xml version="1.0" encoding="utf-8"?>
<!-- Generator: Adobe Illustrator 16.0.0, SVG Export Plug-In . SVG Version: 6.00 Build 0)  -->
<!DOCTYPE svg PUBLIC "-//W3C//DTD SVG 1.1//EN" "http://www.w3.org/Graphics/SVG/1.1/DTD/svg11.dtd">
<svg version="1.1" id="Layer_1" xmlns="http://www.w3.org/2000/svg" x="0px" y="0px"
     width="200px" height="60px" viewBox="206 366 200 60" enable-background="new 206 366 200 60" xml:space="preserve">
<g>
	<path fill="#4D4D4D" d="M397.192,386.594l-2.402-0.1v-1.602l2.402-0.2l0.1-6.106l3.604-1.101l-0.101,7.208h4.005c0.2,0,0.3,0,0.3,0
		s0.1,0.1,0.1,0.2c0,0.5-0.3,0.901-1,1.101c-0.701,0.2-1.702,0.4-3.004,0.4h-0.4l-0.2,13.014v0.3c0,1.701,0.2,2.902,0.601,3.604
		c0.401,0.701,1.002,1.102,1.902,1.102c0.5,0,1.001-0.101,1.502-0.4c0.5-0.2,0.901-0.602,1.401-1.102l-0.101,2.202
		c-0.601,0.7-1.301,1.302-2.102,1.602c-0.802,0.399-1.702,0.602-2.604,0.602c-1.4,0-2.402-0.501-3.103-1.603
		c-0.7-1.001-1.101-2.603-1.101-4.705v-0.4 M391.585,401.509v0.601c0,1.301-0.801,2.603-2.402,3.703
		c-1.601,1.102-3.504,1.703-5.506,1.703c-3.003,0-5.305-1.002-7.106-3.104c-1.802-2.103-2.703-4.905-2.703-8.409
		c0-3.604,0.901-6.506,2.803-8.608c1.902-2.102,4.404-3.204,7.508-3.204c2.303,0,4.204,0.601,5.606,1.902
		c1.4,1.201,2.201,2.803,2.201,4.705c0,0.801-0.4,1.302-1.302,1.501c-0.899,0.3-3.402,0.401-7.507,0.401c-1.201,0-2.202,0-2.902,0
		c-0.701,0-1.302,0-1.902-0.101c-0.101,0.401-0.2,0.901-0.301,1.302c-0.101,0.5-0.101,1-0.101,1.501
		c0,2.802,0.701,5.004,2.003,6.607c1.301,1.601,3.103,2.402,5.306,2.402c1.201,0,2.303-0.2,3.403-0.701
		C389.684,403.21,390.684,402.509,391.585,401.509z M378.573,391.098h0.4c0.1,0,0.501,0,1.2,0c0.701,0,1.402,0,2.104,0h0.601
		c2.201,0,3.503-0.1,4.104-0.3c0.501-0.2,0.802-0.701,0.802-1.301c0-1.001-0.401-1.902-1.202-2.603
		c-0.801-0.701-1.802-1.102-2.903-1.102c-1.301,0-2.502,0.5-3.504,1.501C379.373,388.295,378.773,389.596,378.573,391.098z
		 M351.946,406.914c0.4-0.3,0.701-0.901,0.802-1.702c0.2-0.8,0.2-2.402,0.2-4.604v-4.805v-1.501c0-3.603-0.102-5.906-0.2-7.007
		c-0.101-1.101-0.401-1.802-0.802-2.102l4.505-0.5c0.1,0.4,0.1,0.7,0.2,1.201c0,0.4,0.1,0.9,0.1,1.301v0.701
		c1.001-1.301,2.002-2.202,3.104-2.803c1.101-0.601,2.402-0.901,3.903-0.901c2.103,0,3.604,0.701,4.404,2.103
		c0.802,1.401,1.202,4.504,1.202,9.209v5.105v1.402c0,1.701,0.1,2.902,0.2,3.603c0.1,0.602,0.4,1.102,0.801,1.501h-4.806
		c0.101-1.801,0.101-3.703,0.2-5.705c0-2.001,0.101-4.203,0.101-6.707V393.5c0-2.802-0.301-4.504-0.9-5.305
		c-0.601-0.701-1.702-1.101-3.304-1.101c-1.802,0-3.104,0.5-3.804,1.501c-0.701,1.001-1.102,3.504-1.102,7.307v4.805
		c0,2.202,0.101,3.804,0.2,4.604c0.101,0.801,0.401,1.401,0.801,1.702h-5.806V406.914z"/>
	<path fill="#0096D1" d="M298.993,407.315c-0.2-0.501-0.3-1.102-0.4-1.703c-0.1-0.601-0.2-1.301-0.2-2.102
		c-0.601,1.301-1.502,2.402-2.603,3.104c-1.102,0.701-2.303,1.101-3.704,1.101c-1.701,0-3.203-0.5-4.404-1.602
		c-1.201-1.001-1.801-2.302-1.801-3.604c0-1.301,0.5-2.402,1.501-3.402c1.001-1.001,3.204-2.202,6.707-3.704
		c2.002-0.901,3.303-1.602,3.704-2.203s0.701-1.501,0.701-2.803c0-1.602-0.3-2.703-1.001-3.403
		c-0.701-0.701-1.702-1.101-3.204-1.101c-0.701,0-1.301,0.1-1.802,0.3c-0.5,0.2-0.9,0.6-1.201,1.001c-0.1,0.2-0.3,0.601-0.5,1.101
		c-0.601,1.501-1.401,2.202-2.402,2.202c-0.5,0-1.001-0.201-1.301-0.5c-0.301-0.3-0.501-0.801-0.501-1.301
		c0-1.301,0.901-2.302,2.603-3.104c1.702-0.8,4.004-1.201,6.907-1.201c2.202,0,3.804,0.401,4.705,1.102
		c1,0.701,1.401,2.002,1.401,3.704c0,0.301,0,1.502-0.1,3.604c-0.1,2.102-0.1,4.204-0.1,6.005c0,2.402,0.1,4.305,0.4,5.706
		s0.701,2.202,1.301,2.602 M298.292,395.102c-3.703,1.501-6.006,2.602-7.007,3.503c-0.9,0.802-1.401,1.802-1.401,2.903
		c0,1,0.401,1.701,1.101,2.303c0.701,0.601,1.602,0.9,2.803,0.9c1.502,0,2.703-0.5,3.403-1.502c0.701-1.001,1.101-2.502,1.101-4.604
		V395.102z M252.846,407.014c0.401-0.301,0.701-0.901,0.801-1.702c0.2-0.801,0.2-2.402,0.2-4.604v-4.805v-1.501
		c0-3.604-0.101-5.906-0.2-7.007c-0.101-1.101-0.4-1.802-0.801-2.102l4.505-0.5c0.1,0.4,0.1,0.8,0.2,1.101
		c0,0.4,0.1,0.701,0.1,1.101v0.5c0.901-1.001,2.002-1.802,3.204-2.402c1.201-0.601,2.402-0.801,3.703-0.801
		c1.201,0,2.203,0.3,3.003,0.901s1.501,1.501,1.802,2.603c1.101-1.201,2.202-2.102,3.303-2.703c1.101-0.601,2.302-0.901,3.503-0.901
		s2.203,0.3,3.104,0.901c0.901,0.601,1.501,1.501,1.902,2.602c0.2,0.601,0.3,1.402,0.4,2.503s0.1,3.003,0.1,5.706v4.605v1.401
		c0,1.701,0.1,2.902,0.2,3.604c0.1,0.601,0.4,1.102,0.801,1.502h-4.705c0.1-1.603,0.1-3.203,0.2-4.905c0-1.702,0.1-4.205,0.1-7.508
		v-0.7c0-3.003-0.3-5.005-0.901-5.806c-0.6-0.801-1.601-1.201-3.103-1.201c-0.701,0-1.402,0.2-2.103,0.5
		c-0.601,0.3-1.201,0.801-1.601,1.401c-0.401,0.501-0.601,1.201-0.801,2.302c-0.2,1.001-0.2,2.803-0.2,5.306v5.406
		c0,1.601,0.1,2.902,0.2,3.603c0.2,0.802,0.4,1.302,0.801,1.603h-5.606c0.4-0.301,0.601-0.801,0.8-1.603
		c0.101-0.8,0.201-2.202,0.201-4.404v-1.901v-7.207c0-1.702-0.3-3.003-0.901-3.804c-0.601-0.801-1.602-1.201-3.003-1.201
		c-0.701,0-1.401,0.2-2.002,0.5c-0.601,0.3-1.101,0.801-1.602,1.401c-0.4,0.501-0.701,1.201-0.801,2.202
		c-0.2,1.001-0.2,2.603-0.2,4.905c0,0.501,0,1.401,0,2.703c0,1.301,0,2.402,0,3.204c0,1.601,0.1,2.902,0.2,3.603
		c0.1,0.802,0.401,1.302,0.801,1.603H252.846z M245.639,385.092c0.4,0,0.901,0,1.702,0c1.302,0,2.202-0.1,2.603-0.2
		c0,0.1,0,0.2,0.1,0.4c0,0.1,0,0.2,0,0.2s0,0.1,0,0.2c0,0.1,0,0.2,0,0.3c-0.3,0.2-0.601,0.3-1.101,0.4c-0.5,0.1-1.102,0.1-1.803,0.1
		c0.501,0.5,0.801,1.001,1.001,1.702c0.2,0.601,0.301,1.401,0.301,2.202c0,1.902-0.601,3.504-1.902,4.805s-3.103,2.101-5.506,2.602
		c-1.501,0.701-2.602,1.302-3.403,1.902s-1.102,1.101-1.102,1.602c0,0.801,2.002,1.701,5.906,2.703l0.701,0.2
		c3.604,1,6.006,1.901,7.207,2.901c1.201,1.002,1.802,2.304,1.802,4.005c0,1.401-0.401,2.603-1.201,3.604
		c-0.801,1.102-2.502,2.403-5.006,3.904c-0.1,0.1-0.3,0.2-0.6,0.4c-2.803,1.701-5.306,2.603-7.408,2.603
		c-2.302,0-4.304-0.601-5.906-1.901c-1.602-1.302-2.402-2.803-2.402-4.705c0-2.103,1.702-4.605,5.005-7.308
		c1-0.801,1.802-1.401,2.302-1.902c-1.702-0.4-2.903-0.801-3.604-1.301c-0.701-0.5-1.101-1.201-1.101-2.003
		c0-1,0.8-1.901,2.502-2.701c1.401-0.701,2.402-1.302,3.203-2.003c-1.501-0.2-2.702-0.9-3.604-2.102
		c-0.9-1.201-1.401-2.603-1.401-4.304c0-2.102,0.801-3.804,2.402-5.105c1.602-1.301,3.704-2.002,6.407-2.002
		c0.801,0,1.501,0.1,2.102,0.2C244.438,384.592,245.039,384.792,245.639,385.092z M244.538,391.698c0-1.802-0.4-3.203-1.101-4.304
		c-0.801-1.101-1.702-1.702-2.803-1.702s-2.002,0.401-2.703,1.302s-1,2.002-1,3.403c0,1.602,0.4,3.003,1.201,4.104
		c0.8,1.102,1.802,1.602,3.003,1.602c1.001,0,1.902-0.4,2.502-1.201C244.238,394.101,244.538,393,244.538,391.698z M239.233,406.214
		c-2.202,1.4-3.704,2.603-4.705,3.604c-1.001,1.001-1.402,2.202-1.402,3.303c0,1.602,0.701,2.803,2.202,3.805
		c1.502,1,3.404,1.501,5.806,1.501c1.902,0,3.604-0.601,5.005-1.902c1.401-1.302,2.102-2.702,2.102-4.403
		c0-1.503-0.601-2.703-1.702-3.504C245.339,407.814,242.937,407.014,239.233,406.214z M223.517,407.014
		c0.4-0.301,0.701-0.901,0.801-1.702c0.2-0.801,0.2-2.402,0.2-4.604v-4.805V393.1c0-3.303-0.1-5.406-0.2-6.506
		c-0.1-1.001-0.4-1.602-0.801-1.902c0.901,0,1.802-0.1,2.603-0.201c0.801-0.1,1.501-0.2,2.202-0.3c-0.1,0.801-0.2,2.203-0.2,4.205
		c0,2.102,0,5.205,0,9.409v2.803c0,2.202,0.1,3.704,0.2,4.506c0.1,0.8,0.401,1.4,0.801,1.701h-5.606V407.014z M225.319,381.388
		l-2.102-3.304l3.704-2.302l2.102,3.404L225.319,381.388z M206.3,401.509c0.601,1.501,1.301,2.503,2.302,3.203
		s2.302,1.101,3.804,1.101c1.401,0,2.502-0.4,3.403-1.2c0.901-0.801,1.302-1.803,1.302-3.003c0-1.002-0.301-1.802-0.901-2.503
		c-0.601-0.701-1.802-1.603-3.804-2.603c-2.102-1.101-3.504-2.203-4.305-3.204s-1.201-2.202-1.201-3.503
		c0-1.802,0.701-3.103,2.002-4.104c1.302-1,3.203-1.501,5.605-1.501c0.701,0,1.602,0.101,2.502,0.2
		c0.901,0.1,1.902,0.301,2.803,0.501v4.204c-0.601-1.102-1.301-1.902-2.202-2.402c-0.901-0.5-1.902-0.801-3.003-0.801
		c-1.201,0-2.102,0.3-2.803,0.801c-0.701,0.601-1.001,1.301-1.001,2.202c0,1.602,1.702,3.403,5.005,5.405l0.401,0.2
		c2.002,1.102,3.303,2.102,4.004,3.002c0.701,0.901,1,1.903,1,3.104c0,1.901-0.901,3.504-2.602,4.905
		c-1.702,1.401-3.904,2.003-6.307,2.003c-1.801,0-3.303-0.2-4.504-0.602c-1.201-0.4-1.802-1.001-1.802-1.602
		c0-0.301,0-0.7,0.1-1.401C206.1,403.21,206.2,402.409,206.3,401.509z"/>
	<polyline fill="#B2B2B2" points="314.408,410.317 328.322,395.903 314.308,381.789 337.632,381.789 337.632,384.992 
		322.416,384.992 333.127,395.903 322.216,407.113 338.332,407.113 338.332,410.317 	"/>
	<path fill="#B2B2B2" d="M353.347,410.317c-1.401,2.502-3.103,4.705-5.005,6.706c-5.406,5.406-12.713,8.709-20.921,8.709l0,0l0,0
		c-8.108,0-15.516-3.303-20.921-8.709c-2.001-2.001-3.703-4.204-5.004-6.706h3.303c1.101,1.702,2.302,3.203,3.704,4.705
		c4.806,4.804,11.512,7.808,18.819,7.808l0,0l0,0c7.307,0,14.014-3.004,18.818-7.808c1.401-1.401,2.702-3.003,3.704-4.705
		 M327.421,366.573L327.421,366.573c8.108,0,15.515,3.303,20.921,8.708c2.003,2.002,3.604,4.204,5.005,6.606h-3.303
		c-1.102-1.701-2.303-3.203-3.704-4.604c-4.805-4.805-11.512-7.808-18.818-7.808l0,0l0,0c-7.308,0-14.015,3.003-18.819,7.808
		c-1.401,1.401-2.603,2.903-3.704,4.604h-3.303c1.301-2.402,3.003-4.705,5.005-6.606
		C311.906,369.877,319.313,366.573,327.421,366.573L327.421,366.573z"/>
</g>
</svg>
